#format: frame checksums
#version: 2
#hash: MD5
#tb 0: 1/30
#media_type 0: video
#codec_id 0: rawvideo
#dimensions 0: 320x180
#sar 0: 0/1
#tb 1: 1/44100
#media_type 1: audio
#codec_id 1: pcm_s16le
#sample_rate 1: 44100
#channel_layout 1: 3
#channel_layout_name 1: stereo
#stream#, dts,        pts, duration,     size, hash
0,          0,          0,        1,   172800, b7226dd447a0d04dc10dbba51073e198
1,          0,          0,    22050,    88200, e9ded829730eccd2d0273d7cc06be58c
0,          1,          1,        1,   172800, 67896e7a7faa9e0daf3703e38bb05cb7
0,          2,          2,        1,   172800, a035f4f7707954189291ef9de67544e8
0,          3,          3,        1,   172800, fbf4962bf61e3ec73c886d7d0b71159f
0,          4,          4,        1,   172800, a5187f2220c062357feb6c8b609fa05c
0,          5,          5,        1,   172800, 0f7d295065af673f816d574513413672
0,          6,          6,        1,   172800, 1149cbdd5c716ebfec9de37a87554a97
0,          7,          7,        1,   172800, 1a18a5189bc72f6de57b3635acfe927f
0,          8,          8,        1,   172800, e99a1cc9fee42e40b2ac0cfcfcbf1fcf
0,          9,          9,        1,   172800, 2299a50887b7ea3e969d2c280afc3e05
0,         10,         10,        1,   172800, 6b5f5e1e95a43a9b44dfa347e0384495
0,         11,         11,        1,   172800, 93e33d68cfa4c1e4a236aa5892474e44
0,         12,         12,        1,   172800, 56e8cc40426a730b945df5cbf8b90652
0,         13,         13,        1,   172800, 5a2e47fc25dbaaabd842f678d7f3986c
0,         14,         14,        1,   172800, 93a00ae2c69afa31920161f57b5b255f
0,         15,         15,        1,   172800, 057b9d888f08ea6f7118992fe01631ae
1,      22050,      22050,    22050,    88200, e9ded829730eccd2d0273d7cc06be58c
0,         16,         16,        1,   172800, d9658cdd62cce8dc69a29c036c2110a6
0,         17,         17,        1,   172800, 5adbe1963df4e129364d668b1b9809f3
0,         18,         18,        1,   172800, 2bfc66320d4f10b93575feab0dd916da
0,         19,         19,        1,   172800, 037913b4da1d8cb895cac20434540e46
0,         20,         20,        1,   172800, 6ccc8be17a2f6ac0733d65e9043ac1f9
0,         21,         21,        1,   172800, 46bca2857b5910a9a472a19fa1c9af8a
0,         22,         22,        1,   172800, ddba4b50b9204864df0e75f417075e52
0,         23,         23,        1,   172800, 03d1c2cf22a2d72e21344185d5ff7695
0,         24,         24,        1,   172800, 752de832a7ce585352419fb7b4ea5746
0,         25,         25,        1,   172800, 103b1eb35bdfb07d73e33967e9547a18
0,         26,         26,        1,   172800, 7d6594ec9a225a7e047ae864026624eb
0,         27,         27,        1,   172800, 974830dbb771d7dc5b6f27101e5d645f
0,         28,         28,        1,   172800, 0bfe8be8b8973047c1332b0c987c3558
0,         29,         29,        1,   172800, 4f4ed5a2631a9fb8376b7d437994c9d4
0,         30,         30,        1,   172800, 7afd9b634eaf9ba219114bf4f581de55
1,      44100,      44100,    22050,    88200, e9ded829730eccd2d0273d7cc06be58c
0,         31,         31,        1,   172800, 642437a13ff5f559a85a57abd9bb6e13
0,         32,         32,        1,   172800, c831937e482e19c9de65eab9cadfc778
0,         33,         33,        1,   172800, d4c0be9f679639b6cf5dbe87b62af259
0,         34,         34,        1,   172800, 88871a1b14962b3701fe4d504ed54b53
0,         35,         35,        1,   172800, bcbcbc198ecf75f35a463ead29600cb1
0,         36,         36,        1,   172800, 545e6f8bb59d728201e8d4b1b8599b47
0,         37,         37,        1,   172800, 6839bad7e3ea6dacb528cd678af0cca7
0,         38,         38,        1,   172800, 84bb4d64a53306bfdbdc175c7d57f9df
0,         39,         39,        1,   172800, d03af068d9bc89e7cd25fa90bbcf260b
0,         40,         40,        1,   172800, 33a888f707f25d7771b5ca83528c6931
0,         41,         41,        1,   172800, 7afbd338d64a230dabbbd0537b8a5001
0,         42,         42,        1,   172800, f421702f09505fcb11982de482adc86a
0,         43,         43,        1,   172800, d4b198ddb303596f6834488ad6ebf553
0,         44,         44,        1,   172800, 5e487697bdcb96a6ba00ee7d3af737a4
0,         45,         45,        1,   172800, ec85862a980f252aee08178be84c0aa4
1,      66150,      66150,    22050,    88200, e9ded829730eccd2d0273d7cc06be58c
0,         46,         46,        1,   172800, 3cffd16557369e934a2842d57bfdc132
0,         47,         47,        1,   172800, fbeffd6ecfe38604d8d50d836dd43684
0,         48,         48,        1,   172800, b3333be6d7b739aa6cb09f6f0968599b
0,         49,         49,        1,   172800, e5010d22aafb365d01a3fc1df0084614
0,         50,         50,        1,   172800, c3f814bfa2bf4d1a47a3bb4057dac812
0,         51,         51,        1,   172800, 458eb1403db5796987aceeaa8fb79787
0,         52,         52,        1,   172800, 8f9f73d5b71a58ac78e9e010cc9e9ce6
0,         53,         53,        1,   172800, aa4e9bdb53b38bd206a21de343018a7c
0,         54,         54,        1,   172800, a707ef5e8480b34e89570b62264228e1
0,         55,         55,        1,   172800, 8888a2c9e2d6b8da5864623877190c60
0,         56,         56,        1,   172800, 7d322a8c9a1ec3b5a2f4e952059f08d7
0,         57,         57,        1,   172800, d6e3249b2c6fdb9c711400fc37c88841
0,         58,         58,        1,   172800, 383ec42f760a52e4cd716df0c74ca1fc
0,         59,         59,        1,   172800, a390c8cc68cb51235ed1d2bd4041f431
0,         60,         60,        1,   172800, 6edb1238509d213519dabf1c4dc3d634
1,      88200,      88200,    22050,    88200, e9ded829730eccd2d0273d7cc06be58c
0,         61,         61,        1,   172800, 687a7b78ce81fcb69e0f329a84c424df
0,         62,         62,        1,   172800, 22cb21cd0e7d24e175c80ecdcde00f06
0,         63,         63,        1,   172800, bd27bba6d58493c1fc1b329a00db825a
0,         64,         64,        1,   172800, 854c05025a56a10af59fa65da2064b71
0,         65,         65,        1,   172800, a6ddecd24ab621d4ebad626cae4efcf9
0,         66,         66,        1,   172800, 03fdd78905a8dbbc10e3dfd0c16e178e
0,         67,         67,        1,   172800, 35ae3e6b4c9457f004c11ae538b27a7a
0,         68,         68,        1,   172800, c2495bb7f44c8fcde5580b51e416d816
0,         69,         69,        1,   172800, 99081e72c5e452d7b804d3f0eea01976
0,         70,         70,        1,   172800, a86a9bec66dfd96118f916105d115e18
0,         71,         71,        1,   172800, 40480f938180c5605eec4ebaaf708659
0,         72,         72,        1,   172800, 63806f6a698facc926fa62f84bcec21c
0,         73,         73,        1,   172800, 6b8859a15414a69b500e2f984e8cce9b
0,         74,         74,        1,   172800, 1fa74f2b71b10cd653faf1caef68e79c
0,         75,         75,        1,   172800, cac8f2797d2ac2df2f42e0fdb82c0649
1,     110250,     110250,    22050,    88200, e9ded829730eccd2d0273d7cc06be58c
0,         76,         76,        1,   172800, 5330b4f2bbd3006f5088e3ba284b0016
0,         77,         77,        1,   172800, 75d7d97e441ba8e5a4ff1249fe14ac28
0,         78,         78,        1,   172800, d2ae4d86439706cc8dcccb243316052d
0,         79,         79,        1,   172800, 0fddc90cacc70054020305fb6f821a36
0,         80,         80,        1,   172800, e2d4f3b52bddfcd60da0d0ec347bf4d0
0,         81,         81,        1,   172800, cc7e78fa0d531b1f27d439eb09bf0029
0,         82,         82,        1,   172800, 539a80e8e1d09d28f0dc11d01edad0f4
0,         83,         83,        1,   172800, 19db745c19bbaad0b163bedf893ef47a
0,         84,         84,        1,   172800, 9c24cd75689bb63cbbae51d8f75d4d96
0,         85,         85,        1,   172800, 81ba7e1e12b23a4c6d17823bfbd6527b
0,         86,         86,        1,   172800, c4a870f6541a4a230a600e58ca667b68
0,         87,         87,        1,   172800, 987570e7724e6409781d9c9f829ad4b9
0,         88,         88,        1,   172800, 9c93c0cb6c34a79bd43119fe42e3b00d
0,         89,         89,        1,   172800, 11c3f00306e1c1d85637034aa3fdc46c
0,         90,         90,        1,   172800, 11c3f00306e1c1d85637034aa3fdc46c
1,     132300,     132300,     1379,     5516, ea7bc2573f4449f8ea0baf763b754689
